<svg xmlns="http://www.w3.org/2000/svg" width="256" height="256" viewBox="0 0 256 256"><defs>
    <linearGradient id="bg-grad" x1="0%" y1="0%" x2="100%" y2="100%">
      <stop offset="0%" stop-color="#1a1a1a"></stop>
      <stop offset="100%" stop-color="#111111"></stop>
    </linearGradient>
    <linearGradient id="brown-grad" x1="0%" y1="0%" x2="100%" y2="100%">
      <stop offset="0%" stop-color="#c49a50"></stop>
      <stop offset="100%" stop-color="#a07840"></stop>
    </linearGradient>
    <filter id="glow">
      <feGaussianBlur stdDeviation="3" result="blur"></feGaussianBlur>
      <feComposite in="SourceGraphic" in2="blur" operator="over"></feComposite>
    </filter>
  </defs><rect width="256" height="256" rx="52" ry="52" fill="url(#bg-grad)"></rect><rect width="256" height="256" rx="52" ry="52" fill="none" stroke="#333" stroke-width="2"></rect><rect x="0" y="0" width="256" height="38" rx="52" ry="52" fill="#1e1e1e"></rect><rect x="0" y="20" width="256" height="18" fill="#1e1e1e"></rect><rect x="0" y="36" width="256" height="2" fill="#333"></rect><circle cx="36" cy="20" r="6" fill="#f85149" opacity=".85"></circle><circle cx="56" cy="20" r="6" fill="#d29922" opacity=".85"></circle><circle cx="76" cy="20" r="6" fill="#3fb950" opacity=".85"></circle><rect x="0" y="36" width="256" height="3" fill="url(#brown-grad)" rx="1"></rect><rect x="24" y="52" width="36" height="160" rx="0" fill="#161616"></rect><rect x="60" y="52" width="1" height="160" fill="#2c2c2c"></rect><rect x="30" y="68" width="18" height="2" rx="1" fill="#444"></rect><rect x="30" y="84" width="14" height="2" rx="1" fill="#3a3a3a"></rect><rect x="30" y="100" width="18" height="2" rx="1" fill="#444"></rect><rect x="30" y="116" width="12" height="2" rx="1" fill="#3a3a3a"></rect><rect x="30" y="132" width="18" height="2" rx="1" fill="#444"></rect><rect x="30" y="148" width="16" height="2" rx="1" fill="#3a3a3a"></rect><rect x="30" y="164" width="18" height="2" rx="1" fill="#444"></rect><rect x="30" y="180" width="14" height="2" rx="1" fill="#3a3a3a"></rect><rect x="74" y="65" width="28" height="8" rx="3" fill="#c49a50" opacity=".9"></rect><rect x="108" y="65" width="52" height="8" rx="3" fill="#4a4a4a"></rect><rect x="166" y="65" width="32" height="8" rx="3" fill="#3a7a5a" opacity=".8"></rect><rect x="86" y="81" width="18" height="8" rx="3" fill="#4a4a4a"></rect><rect x="110" y="81" width="44" height="8" rx="3" fill="#79c0ff" opacity=".8"></rect><rect x="160" y="81" width="24" height="8" rx="3" fill="#4a4a4a"></rect><rect x="86" y="97" width="32" height="8" rx="3" fill="#c49a50" opacity=".7"></rect><rect x="124" y="97" width="56" height="8" rx="3" fill="#98c379" opacity=".8"></rect><rect x="74" y="113" width="88" height="8" rx="3" fill="#4a5a4a" opacity=".7"></rect><rect x="86" y="129" width="22" height="8" rx="3" fill="#4a4a4a"></rect><rect x="114" y="129" width="38" height="8" rx="3" fill="#c49a50" opacity=".9"></rect><rect x="158" y="129" width="28" height="8" rx="3" fill="#79c0ff" opacity=".7"></rect><rect x="86" y="145" width="16" height="8" rx="3" fill="#4a4a4a"></rect><rect x="108" y="145" width="52" height="8" rx="3" fill="#98c379" opacity=".6"></rect><rect x="74" y="161" width="28" height="8" rx="3" fill="#c49a50" opacity=".7"></rect><rect x="108" y="161" width="40" height="8" rx="3" fill="#4a4a4a"></rect><rect x="74" y="177" width="2" height="12" rx="1" fill="#c49a50" opacity=".95"></rect><rect x="62" y="174" width="170" height="18" rx="2" fill="#c49a50" opacity=".07"></rect><rect x="0" y="218" width="256" height="38" rx="0" fill="#1e3a2a"></rect><rect x="0" y="236" width="256" height="20" rx="0" fill="#1e3a2a"></rect><rect x="0" y="236" width="256" height="20" rx="52" ry="52" fill="#1e3a2a"></rect><rect x="16" y="228" width="30" height="6" rx="3" fill="#7dbe9e" opacity=".7"></rect><rect x="54" y="228" width="22" height="6" rx="3" fill="#7dbe9e" opacity=".5"></rect><rect x="84" y="228" width="16" height="6" rx="3" fill="#7dbe9e" opacity=".5"></rect><text x="196" y="210" font-family="'Segoe UI', sans-serif" font-size="52" font-weight="700" fill="url(#brown-grad)" opacity=".12">D</text><style>@media (prefers-color-scheme: light) { :root { filter: none; } }
@media (prefers-color-scheme: dark) { :root { filter: none; } }
</style></svg>
